<svg width="427" height="160" viewBox="0 0 427 160" fill="none" xmlns="http://www.w3.org/2000/svg">
<g clip-path="url(#clip0_3_44)">
<path d="M16.896 122C16.5547 122 16.3413 121.787 16.256 121.36L1.152 33.424C1.06667 33.0827 1.19467 32.912 1.536 32.912H15.872C16.2133 32.912 16.4267 33.0827 16.512 33.424L24.704 91.28L33.152 33.424C33.2373 33.0827 33.4933 32.912 33.92 32.912H45.44C45.7813 32.912 45.9947 33.0827 46.08 33.424L54.4 91.28L62.72 33.424C62.8053 33.0827 63.0187 32.912 63.36 32.912H77.568C77.9947 32.912 78.1653 33.0827 78.08 33.424L62.848 121.36C62.7627 121.531 62.6347 121.701 62.464 121.872C62.2933 121.957 62.208 122 62.208 122H46.72C46.464 122 46.2507 121.787 46.08 121.36L39.552 75.408L33.024 121.36C32.9387 121.787 32.7253 122 32.384 122H16.896ZM106.8 123.28C102.192 123.28 97.968 122.128 94.128 119.824C90.3733 117.435 87.344 114.32 85.04 110.48C82.736 106.555 81.584 102.245 81.584 97.552L81.712 56.976C81.712 52.2827 82.8213 48.016 85.04 44.176C87.344 40.336 90.416 37.264 94.256 34.96C98.096 32.656 102.277 31.504 106.8 31.504C111.408 31.504 115.589 32.656 119.344 34.96C123.099 37.264 126.085 40.336 128.304 44.176C130.608 48.016 131.76 52.2827 131.76 56.976L131.888 97.552C131.888 102.245 130.736 106.555 128.432 110.48C126.213 114.32 123.184 117.435 119.344 119.824C115.589 122.128 111.408 123.28 106.8 123.28ZM106.8 107.792C109.36 107.792 111.579 106.768 113.456 104.72C115.419 102.587 116.4 100.197 116.4 97.552L116.272 56.976C116.272 54.16 115.376 51.7707 113.584 49.808C111.792 47.8453 109.531 46.864 106.8 46.864C104.155 46.864 101.893 47.8453 100.016 49.808C98.1387 51.6853 97.2 54.0747 97.2 56.976V97.552C97.2 100.368 98.1387 102.8 100.016 104.848C101.893 106.811 104.155 107.792 106.8 107.792ZM142.132 122C141.791 122 141.62 121.787 141.62 121.36L141.876 33.424C141.876 33.0827 142.047 32.912 142.388 32.912H168.244C172.852 32.912 177.076 34.064 180.916 36.368C184.841 38.5867 187.956 41.616 190.26 45.456C192.564 49.2107 193.716 53.4773 193.716 58.256C193.716 61.4133 193.247 64.272 192.308 66.832C191.369 69.3067 190.26 71.44 188.98 73.232C187.7 74.9387 186.548 76.2187 185.524 77.072C190.132 82.192 192.436 88.208 192.436 95.12L192.564 121.36C192.564 121.787 192.351 122 191.924 122H177.46C177.119 122 176.948 121.872 176.948 121.616V95.12C176.948 92.048 175.839 89.4027 173.62 87.184C171.487 84.88 168.841 83.728 165.684 83.728H157.236L157.108 121.36C157.108 121.787 156.937 122 156.596 122H142.132ZM157.236 68.368H168.244C170.889 68.368 173.236 67.3867 175.284 65.424C177.332 63.4613 178.356 61.072 178.356 58.256C178.356 55.5253 177.332 53.1787 175.284 51.216C173.321 49.2533 170.975 48.272 168.244 48.272H157.236V68.368ZM204.01 122C203.583 122 203.37 121.787 203.37 121.36L203.626 33.424C203.626 33.0827 203.797 32.912 204.138 32.912L228.074 32.784C232.767 32.6987 237.034 33.808 240.874 36.112C244.799 38.416 247.914 41.5307 250.218 45.456C252.522 49.296 253.674 53.5627 253.674 58.256V94.992C253.674 99.9413 252.479 104.464 250.09 108.56C247.701 112.571 244.501 115.771 240.49 118.16C236.479 120.549 231.957 121.787 226.922 121.872L204.01 122ZM218.986 106.256H226.922C230.079 106.256 232.725 105.147 234.858 102.928C237.077 100.709 238.186 98.064 238.186 94.992V58.128C238.186 55.3973 237.162 53.0507 235.114 51.088C233.151 49.04 230.805 48.0587 228.074 48.144L219.114 48.272L218.986 106.256ZM264.257 122C263.916 122 263.745 121.787 263.745 121.36L263.873 33.552C263.873 33.1253 264.086 32.912 264.513 32.912H278.721C279.148 32.912 279.361 33.1253 279.361 33.552L279.233 106.256H305.601C306.028 106.256 306.241 106.469 306.241 106.896V121.36C306.241 121.787 306.028 122 305.601 122H264.257ZM315.132 122C314.791 122 314.62 121.787 314.62 121.36L314.748 33.424C314.748 33.0827 314.919 32.912 315.26 32.912H356.348C356.689 32.912 356.86 33.1253 356.86 33.552V47.888C356.86 48.2293 356.689 48.4 356.348 48.4H330.108V68.368H356.348C356.689 68.368 356.86 68.5387 356.86 68.88L356.988 83.344C356.988 83.6853 356.817 83.856 356.476 83.856H330.108V106.256H356.476C356.817 106.256 356.988 106.469 356.988 106.896V121.488C356.988 121.829 356.817 122 356.476 122H315.132Z" fill="black"/>
<rect x="382" y="77" width="45" height="45" fill="#7CB778"/>
</g>
<defs>
<clipPath id="clip0_3_44">
<rect width="427" height="160" fill="white"/>
</clipPath>
</defs>
</svg>
